<svg width="16" height="16" viewBox="0 0 16 16" fill="none" xmlns="http://www.w3.org/2000/svg">
<g clip-path="url(#clip0_103_406)">
<path d="M15.4126 0.58803C15.1736 0.346115 14.8762 0.169933 14.5492 0.0765073C14.2222 -0.0169187 13.8767 -0.0244309 13.5459 0.0546963L2.87926 2.30136C2.26498 2.38561 1.68641 2.63968 1.20873 3.03497C0.73104 3.43026 0.373201 3.95107 0.175509 4.53874C-0.0221834 5.12641 -0.0518764 5.75761 0.0897735 6.36124C0.231423 6.96488 0.53879 7.51697 0.977259 7.95536L2.12259 9.10003C2.18458 9.162 2.23374 9.23559 2.26726 9.31658C2.30078 9.39757 2.31799 9.48438 2.31793 9.57203V11.684C2.3194 11.981 2.38776 12.2738 2.51793 12.5407L2.51259 12.5454L2.52993 12.5627C2.72527 12.9554 3.04431 13.2731 3.43793 13.4667L3.45526 13.484L3.45993 13.4787C3.72683 13.6089 4.01964 13.6772 4.31659 13.6787H6.42859C6.60529 13.6786 6.77482 13.7486 6.89993 13.8734L8.04459 15.018C8.35161 15.3284 8.71702 15.575 9.11978 15.7436C9.52253 15.9121 9.95466 15.9993 10.3913 16C10.7551 15.9996 11.1164 15.9401 11.4613 15.824C12.0436 15.6328 12.5608 15.2827 12.9547 14.8132C13.3487 14.3436 13.6035 13.7734 13.6906 13.1667L15.9406 2.4767C16.0238 2.14312 16.0189 1.79364 15.9264 1.46254C15.8338 1.13143 15.6567 0.830076 15.4126 0.58803V0.58803ZM3.06659 8.1587L1.92059 7.01403C1.65374 6.7536 1.46671 6.42246 1.38145 6.05947C1.29619 5.69647 1.31625 5.31669 1.43926 4.9647C1.55852 4.60358 1.779 4.28431 2.07446 4.04487C2.36992 3.80543 2.72793 3.65589 3.10593 3.61403L13.6666 1.3907L3.64993 11.4087V9.57203C3.65094 9.30959 3.5999 9.04955 3.49977 8.80696C3.39965 8.56436 3.25241 8.34403 3.06659 8.1587V8.1587ZM12.3806 12.9387C12.3294 13.3069 12.1766 13.6536 11.9393 13.9398C11.7021 14.226 11.3897 14.4404 11.0373 14.5589C10.685 14.6775 10.3066 14.6955 9.94455 14.6109C9.58254 14.5263 9.25127 14.3424 8.98793 14.08L7.84126 12.9334C7.65617 12.7473 7.43602 12.5997 7.19354 12.4992C6.95106 12.3988 6.69106 12.3474 6.42859 12.348H4.59193L14.6099 2.33336L12.3806 12.9387Z" fill="#FFFFFF"/>
</g>
<defs>
<clipPath id="clip0_103_406">
<rect width="16" height="16" fill="white"/>
</clipPath>
</defs>
</svg>
